<svg width="29" height="34" viewBox="0 0 29 34" fill="none" xmlns="http://www.w3.org/2000/svg">
<path fill-rule="evenodd" clip-rule="evenodd" d="M3.5 26.1428C3.5 22.8503 6.12987 20.2142 9.33333 20.2142H16.6667C17.9531 20.2142 19.1399 20.6358 20.1053 21.3532C20.2614 21.4693 20.4116 21.593 20.5555 21.7238L22.6783 19.601C22.43 19.3677 22.1684 19.1488 21.8947 18.9454C20.4321 17.8584 18.6224 17.2142 16.6667 17.2142H9.33333C4.43662 17.2142 0.5 21.2301 0.5 26.1428V27.9999C0.5 28.8284 1.17157 29.4999 2 29.4999C2.82843 29.4999 3.5 28.8284 3.5 27.9999V26.1428ZM25.0947 23.4624L22.4994 26.0577C22.4998 26.086 22.5 26.1144 22.5 26.1428V27.9999C22.5 28.8284 23.1716 29.4999 24 29.4999C24.8284 29.4999 25.5 28.8284 25.5 27.9999V26.1428C25.5 25.2094 25.3581 24.3089 25.0947 23.4624Z" fill="white"/>
<path d="M13 13.1429C9.96235 13.1429 7.5 10.6484 7.5 7.57143C7.5 4.49442 9.96235 2 13 2C16.0377 2 18.5 4.49442 18.5 7.57143C18.5 10.6484 16.0377 13.1429 13 13.1429Z" stroke="white" stroke-width="3" stroke-linecap="round"/>
<path d="M8 24.5L14.5 31L27.5 18" stroke="white" stroke-width="3" stroke-linecap="round"/>
</svg>
