<svg width="50" height="50" viewBox="0 0 50 50" fill="none" xmlns="http://www.w3.org/2000/svg">
<path d="M2 48V25H25L2 2H25H48V25H25L48 48H25H2Z" fill="#BD0000"/>
<path fill-rule="evenodd" clip-rule="evenodd" d="M0.614194 1.42597C0.846366 0.865463 1.39332 0.5 2.00001 0.5H48C48.8284 0.5 49.5 1.17157 49.5 2V25C49.5 25.8284 48.8284 26.5 48 26.5H28.6213L49.0607 46.9393C49.4897 47.3683 49.618 48.0135 49.3858 48.574C49.1537 49.1345 48.6067 49.5 48 49.5H2.00001C1.17159 49.5 0.500013 48.8284 0.500013 48V25C0.500013 24.1716 1.17159 23.5 2.00001 23.5H21.3787L0.939353 3.06066C0.510356 2.63166 0.382023 1.98649 0.614194 1.42597ZM21.3787 26.5H3.50001V44.3787L21.3787 26.5ZM5.62133 46.5H23.5V28.6213L5.62133 46.5ZM26.5 28.6213V46.5H44.3787L26.5 28.6213ZM28.6213 23.5L46.5 5.62132V23.5H28.6213ZM44.3787 3.5H26.5V21.3787L44.3787 3.5ZM23.5 21.3787V3.5H5.62133L23.5 21.3787Z" fill="white"/>
<path d="M2.17969 47.8203V25.1797H24.8203L2.17969 47.8203Z" fill="white"/>
<path d="M48.3594 2L48.3594 24.6406L25.7188 24.6406L48.3594 2Z" fill="white"/>
</svg>
