<svg width="28" height="28" viewBox="0 0 28 28" fill="none" xmlns="http://www.w3.org/2000/svg">
<path fill-rule="evenodd" clip-rule="evenodd" d="M12.4445 3.11112C7.28979 3.11112 3.11111 7.28979 3.11111 12.4445C3.11111 17.5991 7.28979 21.7778 12.4445 21.7778C17.5991 21.7778 21.7778 17.5991 21.7778 12.4445C21.7778 7.28979 17.5991 3.11112 12.4445 3.11112ZM0 12.4445C0 5.57157 5.57157 0 12.4445 0C19.3174 0 24.8889 5.57157 24.8889 12.4445C24.8889 15.3202 23.9134 17.9682 22.2754 20.0754L27.5444 25.3445C28.1519 25.952 28.1519 26.937 27.5444 27.5444C26.937 28.1519 25.952 28.1519 25.3446 27.5444L20.0754 22.2754C17.9683 23.9134 15.3202 24.8889 12.4445 24.8889C5.57157 24.8889 0 19.3174 0 12.4445Z" fill="white"/>
</svg>
